<svg preserveAspectRatio="none" overflow="visible" style="display: block;" width="32" height="32" viewBox="0 0 32 32" fill="none" xmlns="http://www.w3.org/2000/svg">
<title>eng house</title>
<g id="house">
<path id="icon" fill-rule="evenodd" clip-rule="evenodd" d="M25 25.2361C25.6137 24.6868 26 23.8885 26 23V13.9544C26 13.023 25.5674 12.1444 24.8291 11.5765L17.8291 6.19192C16.7508 5.36242 15.2492 5.36242 14.1709 6.19192L7.17087 11.5765C7.07859 11.6475 6.99108 11.7234 6.9086 11.8036C6.33122 12.3649 6 13.1394 6 13.9544V23C6 23.8885 6.38625 24.6868 7 25.2361C7.52761 25.7083 8.22333 25.9966 8.98632 26C8.99088 26 8.99544 26 9 26L10 26V19C10 16.7908 11.7909 15 14 15H18C20.2091 15 22 16.7908 22 19V26H23C23.0046 26 23.0091 26 23.0137 26C23.7767 25.9966 24.4724 25.7083 25 25.2361ZM29 23C29 26.3137 26.3137 29 23 29H9C5.68629 29 3 26.3137 3 23V13.9544C3 12.0916 3.86522 10.3344 5.34174 9.19866L12.3417 3.81405C14.4984 2.15504 17.5016 2.15504 19.6583 3.81405L26.6583 9.19866C26.8428 9.34064 27.0178 9.49232 27.1828 9.6527C28.3376 10.7754 29 12.3245 29 13.9544V23ZM19 19C19 18.4477 18.5523 18 18 18H14C13.4477 18 13 18.4477 13 19V26H19V19Z" fill="#272930"/>
</g>
</svg>
